<?xml version="1.0" standalone="no"?>
<!DOCTYPE svg PUBLIC "-//W3C//DTD SVG 20010904//EN"
 "http://www.w3.org/TR/2001/REC-SVG-20010904/DTD/svg10.dtd">
<svg version="1.0" xmlns="http://www.w3.org/2000/svg"
 width="1439.000000pt" height="1174.000000pt" viewBox="0 0 1439.000000 1174.000000"
 preserveAspectRatio="xMidYMid meet">

<g transform="translate(0.000000,1174.000000) scale(0.100000,-0.100000)"
fill="#000000" stroke="none">
<path d="M7130 10744 c-473 -248 -936 -556 -1325 -880 -151 -126 -458 -429
-567 -559 -251 -301 -430 -604 -528 -895 -98 -291 -115 -665 -45 -1005 54
-264 190 -571 401 -905 283 -448 323 -515 409 -685 236 -469 301 -901 214
-1415 -53 -315 -166 -631 -320 -901 -157 -273 -301 -460 -603 -778 -75 -80
-136 -149 -136 -155 0 -6 57 -31 128 -55 294 -100 651 -250 944 -397 556 -278
1027 -596 1546 -1041 l49 -42 90 78 c701 607 1512 1074 2418 1391 83 29 154
56 158 60 4 4 -72 92 -169 196 -214 229 -349 396 -464 570 -403 614 -555 1361
-404 1983 71 288 179 519 432 921 244 389 324 523 393 665 188 389 253 766
204 1190 -95 821 -907 1727 -2220 2477 -142 81 -461 248 -474 248 -3 0 -62
-30 -131 -66z"/>
<path d="M9300 4731 c0 -50 7 -143 15 -208 62 -470 253 -916 578 -1348 67 -89
346 -425 353 -425 2 0 4 466 4 1035 l0 1035 -475 0 -475 0 0 -89z"/>
<path d="M10540 3734 l0 -1086 23 6 c35 10 456 94 517 103 l55 8 3 1028 2
1027 -300 0 -300 0 0 -1086z"/>
<path d="M11400 3809 l0 -1012 43 6 c49 7 361 36 427 39 l45 3 3 988 2 987
-260 0 -260 0 0 -1011z"/>
<path d="M12200 3840 l0 -980 154 0 c84 0 181 -3 215 -6 l61 -7 0 987 0 986
-215 0 -215 0 0 -980z"/>
<path d="M12877 3833 c-3 -543 -5 -988 -4 -989 1 -1 58 -7 127 -13 69 -7 142
-15 163 -18 l37 -6 0 1007 0 1006 -158 0 -159 0 -6 -987z"/>
<path d="M1380 3794 l0 -1006 28 5 c15 3 90 11 166 18 l139 12 -6 456 c-4 251
-7 696 -7 989 l0 532 -160 0 -160 0 0 -1006z"/>
<path d="M1950 3814 l0 -986 31 6 c17 3 114 6 215 6 l184 0 0 980 0 980 -215
0 -215 0 0 -986z"/>
<path d="M2660 3816 c0 -888 2 -984 16 -990 9 -3 37 -6 62 -6 48 0 293 -23
390 -36 l52 -7 0 1012 0 1011 -260 0 -260 0 0 -984z"/>
<path d="M3440 3775 l0 -1025 23 -5 c12 -2 76 -14 142 -26 118 -20 383 -74
418 -85 16 -5 17 51 17 1080 l0 1086 -300 0 -300 0 0 -1025z"/>
<path d="M4330 3763 l1 -1038 27 31 c350 401 552 693 695 1009 138 305 227
675 227 946 l0 89 -475 0 -475 0 0 -1037z"/>
<path d="M2200 2513 c-409 -18 -856 -78 -1288 -173 l-52 -12 167 -161 c93 -89
202 -195 244 -235 l76 -72 175 35 c507 100 1064 146 1538 125 124 -5 233 -10
243 -10 16 0 17 17 17 229 l0 229 -42 6 c-252 35 -756 53 -1078 39z"/>
<path d="M11790 2513 c-92 -4 -431 -31 -482 -40 l-38 -6 0 -228 c0 -177 3
-229 13 -229 6 0 114 5 239 10 479 21 1017 -23 1541 -126 l178 -35 240 233
c221 214 238 233 217 241 -43 16 -412 86 -588 111 -439 63 -883 86 -1320 69z"/>
</g>
</svg>
